<?xml version="1.0" standalone="no"?>
<!DOCTYPE svg PUBLIC "-//W3C//DTD SVG 20010904//EN"
 "http://www.w3.org/TR/2001/REC-SVG-20010904/DTD/svg10.dtd">
<svg version="1.0" xmlns="http://www.w3.org/2000/svg"
 width="104.000000pt" height="104.000000pt" viewBox="0 0 104.000000 104.000000"
 preserveAspectRatio="xMidYMid meet">
<metadata>
Created by potrace 1.14, written by Peter Selinger 2001-2017
</metadata>
<g transform="translate(0.000000,104.000000) scale(0.100000,-0.100000)"
fill="#000000" stroke="none">
<path d="M310 929 c-80 -27 -153 -51 -162 -54 -31 -7 -71 -30 -81 -46 -13 -21
166 -566 194 -591 18 -15 24 -15 67 -3 53 17 55 15 94 -60 11 -22 26 -43 32
-47 6 -4 41 -8 77 -8 54 0 71 4 99 25 40 30 40 30 38 8 -3 -41 5 -53 58 -83
54 -30 61 -31 128 -25 39 3 87 10 106 14 l35 7 3 112 3 111 -41 26 c-22 14
-40 29 -40 33 0 4 7 39 15 77 9 39 18 86 21 105 3 19 7 43 10 52 6 22 12 50
26 131 14 77 7 92 -48 101 -17 3 -96 19 -175 36 -186 38 -191 39 -211 29 -13
-7 -19 -2 -29 29 -14 45 -37 72 -58 71 -9 0 -81 -23 -161 -50z m184 -36 c10
-27 22 -60 27 -74 7 -18 5 -47 -6 -100 -9 -41 -18 -85 -21 -99 -46 -232 -36
-209 -122 -281 -15 -13 -21 -26 -17 -38 4 -14 -3 -20 -32 -29 -20 -6 -38 -10
-40 -8 -8 8 -185 547 -181 551 7 8 342 123 359 124 11 1 22 -16 33 -46z m270
-79 c100 -20 186 -42 192 -48 8 -8 2 -51 -22 -161 -18 -82 -36 -168 -39 -190
-4 -22 -9 -43 -11 -47 -10 -15 -33 -8 -39 12 -3 11 -14 20 -24 20 -18 0 -62
-39 -45 -41 13 -1 -28 -17 -47 -18 -8 -1 -23 14 -31 33 l-17 34 40 18 c80 36
123 105 90 144 -18 21 -67 34 -76 19 -4 -5 -19 0 -34 12 -20 14 -35 18 -55 13
-50 -12 -60 -65 -23 -129 l23 -40 -68 1 c-38 0 -71 -3 -74 -8 -11 -18 -23 -7
-15 15 5 12 11 40 14 62 3 22 18 96 33 165 32 150 32 153 33 163 1 10 -6 11
195 -29z m-154 -392 c0 -4 -29 -26 -64 -50 -54 -37 -69 -43 -105 -40 l-43 3
62 45 c49 36 69 45 105 47 25 0 45 -2 45 -5z m60 -42 c18 -34 19 -43 7 -54 -8
-9 -13 -35 -12 -70 1 -53 -1 -58 -33 -82 -18 -14 -35 -24 -36 -23 -11 12 -86
152 -86 160 0 7 127 107 137 109 2 0 12 -18 23 -40z m200 -72 c0 -5 5 -8 10
-8 18 0 10 17 -12 28 -13 6 -17 11 -10 11 15 1 92 -37 92 -45 0 -4 -11 -3 -25
0 -16 4 -25 2 -25 -5 0 -7 -9 -9 -22 -6 -12 3 -30 2 -40 -4 -13 -7 -18 -6 -18
3 0 9 -3 9 -11 1 -9 -9 -22 -7 -51 8 -22 11 -37 23 -34 26 2 3 26 6 51 8 25 1
48 5 51 8 7 7 44 -14 44 -25z m-444 -55 c-7 -7 -26 7 -26 19 0 6 6 6 15 -2 9
-7 13 -15 11 -17z m554 -77 l0 -95 -52 -6 c-29 -4 -69 -7 -88 -8 l-35 -2 0 88
c0 49 5 92 10 95 11 7 70 16 128 20 l37 3 0 -95z m-270 74 c0 -5 -4 -10 -10
-10 -5 0 -10 5 -10 10 0 6 5 10 10 10 6 0 10 -4 10 -10z m60 -30 c0 -5 -4 -10
-10 -10 -5 0 -10 5 -10 10 0 6 5 10 10 10 6 0 10 -4 10 -10z m-30 -40 c0 -5
-4 -10 -10 -10 -5 0 -10 5 -10 10 0 6 5 10 10 10 6 0 10 -4 10 -10z m-195 -10
c3 -5 2 -10 -4 -10 -5 0 -13 5 -16 10 -3 6 -2 10 4 10 5 0 13 -4 16 -10z m165
-30 c0 -5 -4 -10 -10 -10 -5 0 -10 5 -10 10 0 6 5 10 10 10 6 0 10 -4 10 -10z
m60 -30 c0 -5 -4 -10 -10 -10 -5 0 -10 5 -10 10 0 6 5 10 10 10 6 0 10 -4 10
-10z"/>
<path d="M150 771 c0 -27 26 -46 34 -25 6 17 -9 44 -25 44 -5 0 -9 -8 -9 -19z"/>
<path d="M330 651 c-14 -67 -12 -72 46 -124 47 -42 46 -43 59 53 6 43 4 47
-39 88 -24 23 -46 42 -49 42 -2 0 -10 -26 -17 -59z"/>
<path d="M594 786 c-7 -19 13 -56 31 -56 14 0 45 26 45 38 -1 28 -66 43 -76
18z"/>
<path d="M500 380 c-9 -6 -10 -10 -3 -10 6 0 15 5 18 10 8 12 4 12 -15 0z"/>
<path d="M626 372 c-2 -4 -1 -14 4 -21 10 -17 31 -5 23 14 -6 16 -19 20 -27 7z"/>
<path d="M546 313 c-12 -12 -5 -23 14 -23 11 0 20 4 20 9 0 11 -26 22 -34 14z"/>
<path d="M602 206 c1 -10 8 -17 13 -17 15 1 12 24 -3 29 -9 3 -13 -2 -10 -12z"/>
<path d="M818 308 c5 -5 16 -8 23 -6 8 3 3 7 -10 11 -17 4 -21 3 -13 -5z"/>
<path d="M780 300 c0 -5 5 -10 11 -10 5 0 7 5 4 10 -3 6 -8 10 -11 10 -2 0 -4
-4 -4 -10z"/>
<path d="M930 225 c0 -8 7 -15 15 -15 8 0 15 7 15 15 0 8 -7 15 -15 15 -8 0
-15 -7 -15 -15z"/>
<path d="M887 173 c-12 -11 -8 -23 8 -23 8 0 15 7 15 15 0 16 -12 20 -23 8z"/>
<path d="M840 110 c-12 -7 -12 -12 -3 -21 15 -15 26 -7 21 15 -2 11 -7 13 -18
6z"/>
</g>
</svg>
